HIERARCHY
ROOT Hips
{
	OFFSET 0.000000 0.000000 0.000000 
	CHANNELS 6 Xposition Yposition Zposition Zrotation Yrotation Xrotation
	JOINT LeftUpLeg
	{
		OFFSET 1.363060 -1.794630 0.839290 
		CHANNELS 3 Zrotation Yrotation Xrotation
		JOINT LeftLeg
		{
			OFFSET 2.448110 -6.726130 0.000000 
			CHANNELS 3 Zrotation Yrotation Xrotation
			JOINT LeftFoot
			{
				OFFSET 2.562200 -7.039590 0.000000 
				CHANNELS 3 Zrotation Yrotation Xrotation
				JOINT LeftToeBase
				{
					OFFSET 0.157640 -0.433110 2.322550 
					CHANNELS 3 Zrotation Yrotation Xrotation
					End Site
					{
						OFFSET 0.000000 0.000000 0.000000 
					}
				}
			}
		}
	}
	JOINT RightUpLeg
	{
		OFFSET -1.305520 -1.794630 0.839290 
		CHANNELS 3 Zrotation Yrotation Xrotation
		JOINT RightLeg
		{
			OFFSET -2.542530 -6.985550 0.000000 
			CHANNELS 3 Zrotation Yrotation Xrotation
			JOINT RightFoot
			{
				OFFSET -2.568260 -7.056230 0.000000 
				CHANNELS 3 Zrotation Yrotation Xrotation
				JOINT RightToeBase
				{
					OFFSET -0.164730 -0.452590 2.363150 
					CHANNELS 3 Zrotation Yrotation Xrotation
					End Site
					{
						OFFSET 0.000000 0.000000 0.000000 
					}
				}
			}
		}
	}
	JOINT Spine
	{
		OFFSET 0.028270 2.035590 -0.193380 
		CHANNELS 3 Zrotation Yrotation Xrotation
		JOINT Spine1
		{
			OFFSET 0.056720 2.048850 -0.042750 
			CHANNELS 3 Zrotation Yrotation Xrotation
			JOINT Neck1
			{
				OFFSET -0.054170 1.746240 0.172020 
				CHANNELS 3 Zrotation Yrotation Xrotation
				JOINT Head
				{
					OFFSET 0.104070 1.761360 -0.123970 
					CHANNELS 3 Zrotation Yrotation Xrotation
					End Site
					{
						OFFSET 0.000000 0.000000 0.000000 
					}
				}
			}
			JOINT LeftArm
			{
				OFFSET 3.362410 1.200890 -0.311210 
				CHANNELS 3 Zrotation Yrotation Xrotation
				JOINT LeftForeArm
				{
					OFFSET 4.983000 -0.000000 -0.000000 
					CHANNELS 3 Zrotation Yrotation Xrotation
					JOINT LeftHand
					{
						OFFSET 3.483560 -0.000000 -0.000000 
						CHANNELS 3 Zrotation Yrotation Xrotation
						JOINT LeftHandIndex1
						{
							OFFSET 0.715260 -0.000000 -0.000000 
							CHANNELS 3 Zrotation Yrotation Xrotation
							End Site
							{
								OFFSET 0.000000 0.000000 0.000000 
							}
						}
					}
				}
			}
			JOINT RightArm
			{
				OFFSET -3.136600 1.374050 -0.404650 
				CHANNELS 3 Zrotation Yrotation Xrotation
				JOINT RightForeArm
				{
					OFFSET -5.241900 -0.000000 -0.000000 
					CHANNELS 3 Zrotation Yrotation Xrotation
					JOINT RightHand
					{
						OFFSET -3.444170 -0.000000 -0.000000 
						CHANNELS 3 Zrotation Yrotation Xrotation
						JOINT RightHandIndex1
						{
							OFFSET -0.622530 -0.000000 -0.000000 
							CHANNELS 3 Zrotation Yrotation Xrotation
							End Site
							{
								OFFSET 0.000000 0.000000 0.000000 
							}
						}
					}
				}
			}
		}
	}
}
MOTION
Frames: 16
Frame Time: 0.041667
9.876915 17.908418 33.730274 -179.248930 -3.311065 -150.131317 -21.310150 -18.948970 -22.181943 -1.334296 5.022968 10.287853 0.727210 -1.514695 -17.794512 3.911400 -12.041500 -35.879000 29.580403 21.361932 -22.893780 1.414628 -5.931770 11.982218 -1.277643 -4.316498 -25.168043 -2.795500 10.356400 -30.138800 1.619137 -1.267402 -5.524947 -0.813532 -1.347702 12.148580 3.681835 -6.627343 5.125791 -2.075500 -3.204800 -2.668800 -103.631070 -2.138856 13.655720 11.504332 -13.166632 -1.678524 -1.380908 1.277355 9.370842 -7.125000 0.000000 0.000000 99.688558 -4.185943 2.711328 -11.615485 21.395607 -2.917939 0.923055 3.902978 4.169596 7.125000 0.000000 0.000000 
9.879434 17.906775 33.728522 -179.218599 -3.270461 -149.976209 -21.217979 -18.930302 -22.399628 -1.334835 5.080547 10.390399 0.735445 -1.474922 -17.867762 3.984600 -12.139800 -36.228400 29.547023 21.399272 -23.228085 1.407265 -6.073526 12.269404 -1.285294 -4.316241 -25.291349 -2.879600 10.497500 -30.603300 1.611956 -1.226628 -5.426846 -0.838802 -1.324675 12.536560 3.826580 -6.691627 4.948987 -2.020500 -3.255200 -2.703300 -103.662542 -2.251208 13.517602 11.609133 -13.344058 -1.711469 -1.415151 1.245555 9.466998 -7.125000 0.000000 0.000000 99.649652 -4.062044 2.913267 -11.657863 21.471086 -2.939869 0.927360 3.909568 3.977972 7.125000 0.000000 0.000000 
9.882172 17.905461 33.727427 -179.217699 -3.224617 -149.772814 -21.129141 -18.987922 -22.681713 -1.334444 5.159134 10.531788 0.745710 -1.452754 -18.000556 4.061600 -12.241900 -36.593200 29.391548 21.618583 -23.638030 1.406425 -6.240288 12.586734 -1.303520 -4.435646 -25.584033 -2.917100 10.559600 -30.808600 1.586026 -1.200420 -5.420110 -0.898956 -1.300684 12.494448 3.963195 -6.779339 4.674909 -1.970700 -3.319300 -2.841400 -103.486034 -2.047780 13.978541 11.722302 -13.542633 -1.757604 -1.432809 1.209052 8.898541 -7.125000 0.000000 0.000000 99.663800 -4.241316 2.966012 -11.663459 21.504476 -2.951199 0.955348 3.933917 3.969691 7.125000 0.000000 0.000000 
9.882500 17.905351 33.725346 -179.241113 -3.219959 -149.546671 -21.047615 -19.192514 -22.945271 -1.340166 5.239836 10.666294 0.774801 -1.305145 -18.197426 4.180300 -12.396600 -37.149600 29.172093 21.964716 -23.933640 1.417619 -6.333129 12.721041 -1.317665 -4.653502 -25.876057 -2.918800 10.562300 -30.817700 1.541945 -1.155081 -5.438661 -1.029069 -1.269244 12.313328 3.944154 -6.823599 4.540404 -1.986200 -3.349100 -2.937000 -103.102187 -1.910800 14.825171 11.746224 -13.578941 -1.770202 -1.449757 1.154890 8.121031 -7.125000 0.000000 0.000000 99.764879 -4.568141 2.988832 -11.735789 21.640351 -2.988951 0.954405 3.928103 3.903077 7.125000 0.000000 0.000000 
9.883486 17.904913 33.725127 -179.238842 -3.213071 -149.309194 -20.887241 -19.470231 -23.233838 -1.345959 5.328641 10.809137 0.803560 -1.146852 -18.386880 4.088300 -12.277000 -36.719100 29.003416 22.268017 -24.195017 1.433310 -6.378865 12.739720 -1.316556 -4.881521 -26.030041 -2.919600 10.563800 -30.822500 1.526761 -1.121683 -5.441813 -1.073309 -1.248827 12.217209 3.906250 -6.832304 4.566067 -2.002700 -3.351600 -2.918900 -102.935853 -1.876710 14.988833 11.739976 -13.571717 -1.769963 -1.443665 1.150613 8.051666 -7.125000 0.000000 0.000000 99.771600 -4.808247 3.116678 -11.828966 21.788336 -3.029296 0.920768 3.894632 3.584111 7.125000 0.000000 0.000000 
9.887647 17.902175 33.729727 -179.272322 -3.173998 -148.912674 -20.671080 -19.713653 -23.787287 -1.344932 5.460222 11.012168 0.807313 -1.133298 -18.504603 3.787500 -11.872100 -35.281000 28.704230 22.612428 -24.757408 1.445550 -6.497471 12.874384 -1.306462 -5.078707 -26.138300 -2.857800 10.461300 -30.483800 1.550351 -1.153697 -5.463937 -0.964953 -1.267227 12.157526 3.897504 -6.814236 4.481271 -1.998000 -3.349000 -2.930800 -103.032402 -1.807095 14.431319 11.740611 -13.596454 -1.774804 -1.405594 1.208601 8.575739 -7.125000 0.000000 0.000000 99.633697 -4.910221 3.133922 -11.850670 21.814488 -3.037614 0.911589 3.889598 3.417435 7.125000 0.000000 0.000000 
9.885786 17.906556 33.724361 -179.435104 -3.112484 -148.831134 -20.792078 -19.980519 -23.876832 -1.343160 5.533228 11.155866 0.823973 -1.119023 -18.706893 3.570800 -11.566200 -34.214100 28.385879 22.643543 -24.914908 1.440315 -6.571575 13.037656 -1.317410 -5.163294 -26.299500 -2.824600 10.405600 -30.300400 1.514682 -1.115305 -5.428384 -0.992862 -1.245586 12.157114 3.920231 -6.877214 4.325853 -1.990800 -3.392300 -2.999800 -102.930295 -1.775040 14.334471 11.739724 -13.611284 -1.778591 -1.376643 1.223101 8.712348 -7.125000 0.000000 0.000000 99.635009 -5.076612 3.203011 -11.912394 21.924686 -3.070438 0.914774 3.925853 3.315584 7.125000 0.000000 0.000000 
9.894766 17.900533 33.723813 -179.316646 -3.072042 -148.652223 -20.534491 -19.899482 -24.225703 -1.336210 5.638737 11.371884 0.824084 -1.161529 -18.806448 3.666900 -11.703500 -34.690800 28.399653 23.009034 -25.254829 1.443447 -6.722323 13.311354 -1.327954 -5.297301 -26.526956 -2.879000 10.496600 -30.600400 1.491342 -1.036203 -5.409434 -1.035839 -1.200136 12.116749 3.946147 -6.942415 4.295026 -1.985100 -3.427300 -3.028000 -102.660292 -1.722592 14.767327 11.760733 -13.654538 -1.791592 -1.367946 1.208100 8.254432 -7.125000 0.000000 0.000000 99.725041 -5.329484 3.275265 -11.997397 22.068536 -3.108814 0.888621 3.935359 3.223035 7.125000 0.000000 0.000000 
9.896846 17.900861 33.720309 -179.402145 -3.007386 -148.617384 -20.610852 -20.072270 -24.283858 -1.343309 5.701266 11.500807 0.868838 -0.899095 -19.010121 4.027900 -12.197400 -36.434000 28.252140 23.021610 -25.371433 1.437553 -6.778120 13.435823 -1.336878 -5.289427 -26.620250 -2.913200 10.553200 -30.787200 1.485309 -1.049829 -5.386185 -0.989476 -1.199149 12.016747 3.909194 -6.910942 4.270934 -1.989200 -3.412100 -3.028900 -102.553942 -1.591127 15.128890 11.818925 -13.754775 -1.817629 -1.379907 1.203619 7.769402 -7.125000 0.000000 0.000000 99.679290 -5.425150 3.167663 -11.972931 22.031771 -3.095167 0.881939 3.911635 3.415409 7.125000 0.000000 0.000000 
9.897504 17.903380 33.715599 -179.483273 -3.016716 -148.646716 -20.691437 -20.269349 -24.298934 -1.343760 5.784999 11.696531 0.907838 -0.702567 -19.228295 4.318300 -12.572400 -37.788100 28.158321 23.121241 -25.274585 1.437973 -6.794686 13.499070 -1.354389 -5.408022 -26.820627 -2.918900 10.562600 -30.818600 1.497247 -1.094535 -5.350735 -0.906868 -1.206964 11.919007 3.908085 -6.915177 4.094094 -1.985000 -3.428300 -3.075900 -102.503966 -1.450231 15.663080 11.921878 -13.922165 -1.860094 -1.405938 1.170100 7.189466 -7.125000 0.000000 0.000000 99.567632 -5.389928 3.100418 -11.895962 21.911255 -3.060473 0.900991 3.881349 3.622472 7.125000 0.000000 0.000000 
9.899803 17.905351 33.714285 -179.513204 -3.048336 -148.526459 -20.577188 -20.526806 -24.591975 -1.330887 5.964297 12.087453 0.928901 -0.669830 -19.480784 4.272300 -12.514200 -37.576100 28.052814 23.252987 -25.485461 1.433836 -6.904667 13.730359 -1.369376 -5.491438 -27.028171 -2.948000 10.610500 -30.977100 1.497934 -1.093175 -5.334649 -0.847148 -1.194243 11.807898 3.989362 -6.993431 3.875583 -1.969400 -3.487200 -3.158000 -102.382556 -1.334504 16.306003 12.021207 -14.077689 -1.898501 -1.440482 1.089742 6.538639 -7.125000 0.000000 0.000000 99.521697 -5.466159 3.125641 -11.898025 21.912965 -3.062191 0.906070 3.865967 3.603888 7.125000 0.000000 0.000000 
9.901118 17.904694 33.714504 -179.573732 -2.986251 -148.238311 -20.439909 -20.783402 -25.142089 -1.313490 6.199946 12.572888 0.944927 -0.688244 -19.767621 4.141000 -12.345700 -36.966200 27.777330 23.330478 -26.084199 1.418656 -7.102918 14.111500 -1.383904 -5.368289 -27.189535 -2.962100 10.633400 -31.053200 1.477397 -1.067217 -5.337205 -0.864641 -1.176246 11.716875 4.025648 -7.034381 3.759999 -1.957700 -3.516000 -3.221500 -102.258679 -1.270813 16.564797 12.058813 -14.132938 -1.909863 -1.463160 1.023815 6.272880 -7.125000 0.000000 0.000000 99.563081 -5.619313 3.143916 -11.966598 22.022115 -3.095024 0.907729 3.870521 3.594356 7.125000 0.000000 0.000000 
9.906046 17.903271 33.714942 -179.593364 -2.905724 -147.954284 -20.284591 -20.952711 -25.644288 -1.301535 6.394426 12.966783 0.964633 -0.640915 -20.006436 4.158200 -12.368000 -37.046400 27.520016 23.648122 -26.630030 1.409112 -7.312631 14.510519 -1.412843 -5.326497 -27.521767 -2.985900 10.672300 -31.182400 1.462891 -1.039139 -5.329228 -0.884217 -1.156686 11.653638 4.027802 -7.029297 3.594891 -1.936800 -3.522600 -3.307400 -102.164624 -1.284291 16.536749 12.044270 -14.113336 -1.905334 -1.448537 1.024164 6.331638 -7.125000 0.000000 0.000000 99.584568 -5.775275 3.364423 -12.078281 22.197247 -3.149549 0.909299 3.892048 3.420463 7.125000 0.000000 0.000000 
9.908564 17.900095 33.710233 -179.631626 -2.838217 -147.693520 -20.123052 -21.331688 -25.998954 -1.301517 6.551358 13.269103 1.013509 -0.407728 -20.349453 4.185100 -12.402700 -37.171800 27.179406 24.068260 -27.193507 1.396898 -7.576961 15.042150 -1.442387 -5.473494 -27.941386 -2.986200 10.672700 -31.183900 1.457502 -1.013885 -5.321144 -0.880690 -1.138185 11.610527 4.063965 -7.042753 3.397979 -1.900800 -3.541900 -3.395000 -102.139938 -1.225020 16.523141 12.027918 -14.096014 -1.901875 -1.441894 1.044595 6.394516 -7.125000 0.000000 0.000000 99.466107 -6.007196 3.723025 -12.166721 22.350195 -3.200009 0.924183 3.937071 2.970789 7.125000 0.000000 0.000000 
9.910098 17.898561 33.707167 -179.763543 -2.777693 -147.438751 -20.083164 -21.679431 -26.456572 -1.285573 6.767814 13.716421 1.042069 -0.358657 -20.678858 4.105500 -12.299500 -36.799800 26.754780 24.337587 -27.803087 1.376371 -7.839501 15.579737 -1.461800 -5.545388 -28.229761 -2.835600 10.424100 -30.361300 1.441017 -1.012321 -5.341439 -0.874174 -1.132277 11.430421 4.082026 -7.055638 3.321836 -1.877700 -3.551600 -3.429200 -102.115138 -0.985162 16.711240 12.071818 -14.174274 -1.921539 -1.459064 1.035806 6.242279 -7.125000 0.000000 0.000000 99.374966 -6.261029 3.923636 -12.177880 22.383296 -3.211301 0.930726 3.953371 2.695613 7.125000 0.000000 0.000000 
9.910536 17.897795 33.705743 -179.905140 -2.741661 -147.182585 -20.013613 -22.090631 -27.029571 -1.256002 7.066848 14.357930 1.070868 -0.316650 -21.027710 4.019700 -12.186600 -36.395300 26.336249 24.512838 -28.382000 1.354396 -8.069748 16.051715 -1.482106 -5.526266 -28.472618 -2.688400 10.172700 -29.537900 1.430547 -1.058854 -5.357571 -0.888011 -1.145449 11.248676 4.080036 -7.056905 3.251431 -1.861500 -3.555200 -3.456300 -102.080598 -0.752274 17.007343 12.167171 -14.335266 -1.963301 -1.465903 1.012524 5.867687 -7.125000 0.000000 0.000000 99.346953 -6.384346 4.036681 -12.178344 22.387113 -3.211811 0.927624 3.936208 2.694687 7.125000 0.000000 0.000000 
